<!-- <?xml version="1.0" encoding="UTF-8"?>
<!DOCTYPE svg static "-//W3C//DTD SVG 1.1//EN" "http://www.w3.org/Graphics/SVG/1.1/DTD/svg11.dtd"> -->
<!-- Creator: CorelDRAW X8 -->
<svg xmlns="http://www.w3.org/2000/svg" xml:space="preserve" width="125mm" height="46.114mm" version="1.1" style="shape-rendering:geometricPrecision; text-rendering:geometricPrecision; image-rendering:optimizeQuality; fill-rule:evenodd; clip-rule:evenodd"
viewBox="0 0 12500 4611"
 xmlns:xlink="http://www.w3.org/1999/xlink">
 <defs>
  <style type="text/css">
   <![CDATA[
    .fil1 {fill:#fff}
    .fil3 {fill:#E31E24}
    .fil2 {fill:#fff;fill-rule:nonzero}
    .fil0 {fill:#E31E24;fill-rule:nonzero}
   ]]>
  </style>
 </defs>
 <g id="Layer_x0020_1">
  <metadata id="CorelCorpID_0Corel-Layer"/>
  <g id="_828503600">
   <path class="fil0" d="M4341 1202c-8,5 -22,7 -44,7 -19,0 -39,-2 -59,-7 -102,-198 -160,-308 -177,-330 -28,-39 -104,-75 -228,-109 -39,-11 -69,-36 -90,-76 -11,-35 -27,-87 -50,-157 -18,-39 -38,-77 -60,-113l0 -44 79 0c106,32 186,61 241,87 95,43 162,96 200,161 20,34 50,115 89,243 16,59 46,144 89,255 7,38 10,66 10,83z"/>
   <path class="fil1" d="M12500 1634l-1278 0 0 306c5,0 11,3 16,8 5,5 9,7 13,7 -10,0 -16,0 -17,-2 0,-6 95,-26 285,-60 71,-13 140,-19 210,-19 287,0 472,80 554,241 55,108 82,324 82,650l0 739c-27,-11 -128,-52 -305,-125 0,-42 -8,-68 -25,-79 -67,39 -123,70 -167,90 -138,65 -298,98 -481,98 -252,0 -446,-79 -583,-238 -66,-76 -100,-162 -100,-256 0,-106 53,-212 157,-316 203,-204 456,-306 757,-306 183,0 329,42 441,126l0 -177c-57,-72 -111,-119 -164,-144 -53,-24 -126,-35 -217,-32 -206,4 -394,42 -565,113 -77,32 -151,61 -224,87l0 -142c16,-14 40,-35 72,-63 5,-6 8,-10 10,-12l0 -494 -330 0 -63 0 -1394 0 0 715c106,-132 233,-246 380,-342 99,-65 200,-98 299,-98 202,0 372,77 510,232 127,142 190,296 190,463 0,191 -92,386 -278,584 -186,197 -373,296 -564,296 -98,0 -200,-43 -307,-130 -33,-27 -115,-107 -246,-240l0 394 -333 -144 0 -1730 -265 0 -50 0 -1850 0 -39 0 -1567 0 0 1229c0,82 17,165 51,252 71,178 188,267 350,267 219,0 386,-92 500,-274 88,-141 132,-273 132,-397l0 -763 389 0 0 1634c-30,-17 -87,-45 -171,-82l-218 -98 0 -154c-151,110 -281,180 -389,209 -65,18 -143,27 -232,27 -285,0 -508,-124 -668,-374 -73,-114 -110,-237 -110,-372l0 -1104 -87 0 -144 0 -896 0 -114 0 -1164 0 0 306c5,0 11,3 16,8 5,5 9,7 13,7 -10,0 -16,0 -17,-2 0,-6 95,-26 285,-60 71,-13 141,-19 210,-19 287,0 472,80 554,241 55,108 82,324 82,650l0 739c-27,-11 -128,-52 -305,-125 0,-42 -8,-68 -25,-79 -67,39 -123,70 -167,90 -138,65 -298,98 -481,98 -252,0 -446,-79 -582,-238 -67,-76 -101,-162 -101,-256 0,-106 53,-212 158,-316 202,-204 455,-306 756,-306 183,0 330,42 441,126l0 -177c-56,-72 -111,-119 -164,-144 -53,-24 -125,-35 -217,-32 -206,4 -394,42 -565,113 -77,32 -151,61 -224,87l0 -142c16,-14 41,-35 72,-63 5,-6 9,-10 10,-12l0 -494 -325 0 -68 0 -903 0 0 1542c0,44 14,86 42,127 30,45 66,67 108,67 190,0 286,-196 286,-590l385 221c-147,326 -375,488 -683,487 -179,-1 -318,-83 -418,-245 -44,-71 -65,-141 -65,-211l0 -1398 -401 0 0 -232 401 0 0 -644 345 240 0 404 903 0 68 0 1740 0 114 0 896 0 144 0 2020 0 39 0 1850 0 50 0 265 0c0,-303 -86,-602 -255,-895 -134,-231 -263,-400 -386,-507l421 0c126,107 237,244 332,408 158,277 237,609 237,994l1394 0 63 0 1859 0 0 232zm-9370 1213c0,-56 -67,-107 -201,-152 -111,-37 -204,-55 -278,-55 -269,0 -485,97 -647,292 -66,78 -98,142 -98,192 27,94 132,140 316,140 238,0 455,-59 651,-179 171,-104 257,-183 257,-238zm1218 1375c0,127 -84,236 -251,326 -78,42 -163,63 -253,63 -105,0 -211,-36 -318,-107 -107,-71 -181,-155 -223,-251l298 -230c24,324 115,486 273,486 91,0 136,-53 136,-161l0 -2479 338 0 0 2353zm4063 -1900c0,75 -46,160 -136,255 -77,80 -157,140 -242,180l-288 -326c87,-7 170,-39 248,-95 89,-64 134,-137 134,-219 0,-43 -28,-80 -85,-111 -48,-28 -96,-42 -143,-42 -98,0 -204,47 -316,142 -229,191 -343,403 -343,636l0 813 -369 -192 0 -1419 369 0 0 146c55,-55 169,-112 342,-173 85,-29 172,-43 261,-43 186,0 344,70 474,212 63,69 94,148 94,236zm1939 479c0,-119 -66,-247 -199,-385 -149,-155 -320,-232 -516,-232 -122,0 -237,61 -344,182 -43,48 -64,85 -64,109 0,106 48,229 142,368 199,294 405,441 617,441 134,0 239,-87 314,-259 34,-75 50,-150 50,-224zm1709 46c0,-56 -67,-107 -201,-152 -112,-37 -204,-55 -278,-55 -270,0 -486,97 -647,292 -66,78 -98,142 -98,192 26,94 132,140 316,140 237,0 455,-59 651,-179 171,-104 257,-183 257,-238z"/>
   <g>
    <path class="fil2" d="M4742 3908l118 0 0 437 174 0 0 100 -292 0 0 -537zm407 0l326 0 0 91 -208 0 0 125 162 0 0 92 -162 0 0 133 208 0 0 96 -326 0 0 -537zm542 0l119 0 154 537 -121 0 -27 -111 -151 0 -27 111 -108 0 161 -537zm103 334l-54 -220 -52 220 106 0zm278 -334l128 0c55,0 100,7 134,22 35,15 62,42 83,82 21,40 31,94 31,162 0,48 -6,91 -19,129 -12,37 -29,66 -49,88 -21,22 -44,36 -70,43 -25,8 -58,11 -96,11l-142 0 0 -537zm118 91l0 354 20 0c28,0 49,-5 64,-15 15,-11 28,-29 37,-55 9,-27 13,-64 13,-114 0,-46 -5,-81 -15,-106 -10,-25 -22,-42 -37,-50 -15,-9 -36,-14 -62,-14l-20 0z"/>
    <path class="fil0" d="M6758 4181c0,21 -8,40 -23,55 -15,16 -33,23 -55,23 -21,0 -40,-7 -55,-23 -15,-15 -22,-34 -22,-55 0,-22 7,-40 22,-56 16,-15 34,-23 55,-23 22,0 40,8 55,23 15,16 23,34 23,56z"/>
    <path class="fil2" d="M6941 3908l118 0 0 437 174 0 0 100 -292 0 0 -537zm358 0l326 0 0 91 -208 0 0 125 162 0 0 92 -162 0 0 133 208 0 0 96 -326 0 0 -537zm493 0l119 0 154 537 -121 0 -27 -111 -151 0 -26 111 -109 0 161 -537zm103 334l-54 -220 -52 220 106 0zm230 -334l168 0c33,0 58,1 76,4 17,3 35,11 53,24 17,14 31,32 41,55 10,23 16,49 16,77 0,67 -26,115 -76,142l99 235 -128 0 -72 -212 -60 0 0 212 -117 0 0 -537zm117 87l0 150 52 0c46,0 69,-25 69,-77 0,-18 -3,-33 -10,-44 -7,-12 -15,-19 -24,-23 -9,-4 -22,-6 -40,-6l-47 0zm332 -87l131 0 139 334 0 -334 91 0 0 537 -105 0 -164 -389 0 389 -92 0 0 -537z"/>
    <path class="fil2" d="M9632 4249l109 7c-4,58 -22,106 -55,142 -34,37 -77,55 -131,55 -67,0 -117,-24 -152,-74 -34,-49 -51,-116 -51,-202 0,-87 17,-155 51,-204 35,-49 86,-74 153,-74 112,0 174,69 183,208l-108 8c-2,-80 -27,-120 -74,-120 -25,0 -45,13 -59,39 -15,25 -22,75 -22,149 0,67 6,112 20,137 13,25 33,37 60,37 43,0 69,-36 76,-108zm566 -73c0,185 -65,277 -195,277 -64,0 -113,-23 -146,-71 -33,-47 -49,-116 -49,-206 0,-185 65,-277 195,-277 63,0 112,23 145,69 34,47 50,116 50,208zm-124 0c0,-73 -6,-121 -17,-145 -11,-24 -29,-36 -54,-36 -25,0 -42,12 -54,36 -11,24 -17,73 -17,145 0,71 6,119 17,144 11,25 29,37 54,37 24,0 42,-12 54,-36 11,-24 17,-72 17,-145zm219 -269l131 0 139 334 0 -334 91 0 0 538 -106 0 -164 -389 0 389 -91 0 0 -538zm470 0l131 0 138 334 0 -334 92 0 0 538 -106 0 -164 -389 0 389 -91 0 0 -538zm474 0l327 0 0 92 -209 0 0 125 162 0 0 92 -162 0 0 133 209 0 0 96 -327 0 0 -538zm663 342l109 7c-4,58 -23,106 -56,142 -33,37 -77,55 -131,55 -66,0 -116,-24 -151,-74 -35,-49 -52,-116 -52,-202 0,-87 17,-155 52,-204 34,-49 85,-74 153,-74 112,0 173,69 183,208l-108 8c-3,-80 -28,-120 -75,-120 -25,0 -44,13 -59,39 -15,25 -22,75 -22,149 0,67 7,112 20,137 14,25 34,37 61,37 43,0 68,-36 76,-108zm134 -342l335 0 0 100 -110 0 0 438 -117 0 0 -438 -108 0 0 -100z"/>
    <path class="fil0" d="M9214 4181c0,21 -8,40 -23,55 -15,16 -33,23 -55,23 -22,0 -40,-7 -55,-23 -15,-15 -22,-34 -22,-55 0,-22 7,-40 22,-56 16,-15 34,-23 55,-23 22,0 40,8 55,23 15,16 23,34 23,56z"/>
   </g>
   <polygon class="fil3" points="4516,3675 12352,3675 12352,3759 4516,3759 "/>
  </g>
 </g>
</svg>
