<svg xmlns="http://www.w3.org/2000/svg" width="381.666" height="58.246" viewBox="0 0 381.666 58.246">
  <g id="Group_90" data-name="Group 90" transform="translate(-9940.334 84.5)">
    <path id="path1" d="M34.583,49c-.142.275-.221.5-.175.5a1.432,1.432,0,0,0,.342-.5c.142-.275.221-.5.175-.5a1.447,1.447,0,0,0-.342.5m205.818.192c-.073.118-.046.148.069.077.135-.084.2.573.239,2.349l.051,2.465.036-2.541c.035-2.359-.056-2.9-.4-2.35M35.487,51.542a7.656,7.656,0,0,1-1.4,2.392c-.3.215-.288.242.135.575a1.141,1.141,0,0,1,.444.569.362.362,0,0,0,.223.306,2.585,2.585,0,0,1,.509,1.142c.156.582.349,1.207.428,1.391s.182.458.231.611c.078.246.323.27,2.057.2,3.653-.139,5.385-.263,5.385-.386s-7.458-7.513-7.594-7.513a2.471,2.471,0,0,0-.419.709m6.715,2.87c1.531,1.553,2.806,2.789,2.833,2.747s-1.227-1.312-2.785-2.823l-2.833-2.748L42.2,54.412M238.531,55.6a5.1,5.1,0,0,1-.509.917L236.08,59.5c-.805,1.237-1.705,2.625-2,3.083s-1.126,1.749-1.849,2.868-1.908,2.957-2.633,4.084-1.855,2.873-2.511,3.882-1.325,2.044-1.485,2.3c-.519.836-.529.816-2.116-3.969-.365-1.1-.736-2.15-.824-2.333s-.3-.784-.48-1.334-.712-2.125-1.192-3.5-1.032-2.974-1.228-3.553c-.473-1.4-.479-1.4-1.91,1.14-1.227,2.177-1.241,2.216-.969,2.645a10.643,10.643,0,0,1,.532.977c.14.3.329.541.42.541a.177.177,0,0,1,.164.186,3.783,3.783,0,0,0,.583.981,3.915,3.915,0,0,1,.584.972.444.444,0,0,0,.208.311,2.766,2.766,0,0,1,.54.8,4.407,4.407,0,0,0,.435.75c.628.506.65.869.65,10.575v9.425h9.167v-9.5c0-6.375.056-9.5.17-9.5.094,0,.238-.168.319-.375a5.443,5.443,0,0,1,.58-.949,2.234,2.234,0,0,0,.431-.8.368.368,0,0,1,.229-.31,1.958,1.958,0,0,0,.534-.828c.168-.408.366-.741.44-.741s.261-.262.414-.583.335-.583.406-.583.26-.282.422-.625a4.553,4.553,0,0,1,.591-.948,1.211,1.211,0,0,0,.3-.45,4.3,4.3,0,0,1,.5-.868,3.733,3.733,0,0,0,.5-.907c0-.092.112-.21.25-.263a.389.389,0,0,0,.25-.318,2.234,2.234,0,0,1,.431-.8,5.367,5.367,0,0,0,.579-.949c.082-.207.214-.375.294-.375s.286-.319.458-.709a5.331,5.331,0,0,1,.4-.791,6.005,6.005,0,0,0-.006-1.417,5.977,5.977,0,0,0-.125-1.154m-106.281.858a1.9,1.9,0,0,1,.583.272c.218.166.221.153.022-.1a.786.786,0,0,0-.584-.272c-.337.018-.338.023-.021.1m-3.583,2.589c-3.236.8-2.841.611-2.953,1.443-.05.374-.148.681-.217.681-.289,0-.58,3.585-.575,7.083.005,3.425.275,6.583.562,6.583a6.086,6.086,0,0,1,.428,1.584A7.011,7.011,0,0,0,126.325,78a1.928,1.928,0,0,1,.326.759,3.164,3.164,0,0,0,.424.959,4.084,4.084,0,0,1,.5.99,2.226,2.226,0,0,0,.409.792,1.805,1.805,0,0,1,.434.625,2.654,2.654,0,0,0,.538.758.5.5,0,0,1,.21.371c0,.131.187.361.416.511s.419.358.42.463a9.109,9.109,0,0,0,2.12,2.105c.1,0,.295.188.445.417s.381.417.513.417a.546.546,0,0,1,.4.3,1.713,1.713,0,0,0,.756.531c.329.128.6.287.6.353a2.189,2.189,0,0,0,.834.418,2.19,2.19,0,0,1,.833.418,2.64,2.64,0,0,0,.958.415,4.221,4.221,0,0,1,1.043.418,15.2,15.2,0,0,0,3.351.65c.265,0,.481.075.481.166A10.588,10.588,0,0,0,145.24,91a12.861,12.861,0,0,0,3.01-.167,1.061,1.061,0,0,1,.684-.166,12.7,12.7,0,0,0,3.465-.736,6.308,6.308,0,0,1,1.1-.439,3.815,3.815,0,0,0,.833-.323,5.047,5.047,0,0,1,.834-.419,2.74,2.74,0,0,0,.883-.537.5.5,0,0,1,.374-.213.679.679,0,0,0,.448-.333c.115-.184.289-.334.388-.334a22.843,22.843,0,0,0,3.742-4,2.489,2.489,0,0,1,.315-.5,4.686,4.686,0,0,0,.433-.75,5.13,5.13,0,0,1,.52-.865,3.386,3.386,0,0,0,.412-.959A2.011,2.011,0,0,1,163,79.5a4.832,4.832,0,0,0,.408-1.25,3.539,3.539,0,0,1,.45-1.25c.435,0,.087-.651-.4-.756a7.481,7.481,0,0,1-1.208-.411c-1.748-.775-1.075-1.493-6.675,7.123A16.92,16.92,0,0,1,154.131,85a19.177,19.177,0,0,1-1.723-1.912C150.765,81.126,150.546,81,150,81.65a4.948,4.948,0,0,1-1.589.683c-.134,0-.244.068-.244.15A7.481,7.481,0,0,1,145.2,83a11.411,11.411,0,0,1-3.368-.5c0-.068-.337-.219-.749-.334a3.678,3.678,0,0,1-1.078-.48c-.182-.149-.726-.565-1.21-.926a8.139,8.139,0,0,1-2.3-2.709c0-.12-.063-.219-.14-.219s-.24-.318-.361-.708-.357-1.018-.522-1.4a9.709,9.709,0,0,1-.487-1.917,8.287,8.287,0,0,0-.38-1.628c-.262-.543-.272-8.977-.011-9.147.289-.189.427-1.369.159-1.369A8.766,8.766,0,0,1,133.175,60a8.861,8.861,0,0,0-1.561-1.653c-.108.007-1.435.321-2.947.7m42.067.753c-.284.433-.948,1.449-1.477,2.258a8.074,8.074,0,0,1-1.193,1.56c-.318.122-.348,26.2-.031,26.519a64.943,64.943,0,0,0,9.037.1c.234-.09.263-.852.263-6.883V76.566l2.928-2.9c1.61-1.6,3.044-3.1,3.186-3.338.748-1.266.985-1.1,2.416,1.673a3.346,3.346,0,0,0,.595.883.5.5,0,0,1,.209.375,1.009,1.009,0,0,0,.3.545,3.728,3.728,0,0,1,.586,1.01,4.79,4.79,0,0,0,.45.9,11.228,11.228,0,0,1,1.158,1.835,3.912,3.912,0,0,0,.461.836,13.581,13.581,0,0,1,1.226,2.111,2.776,2.776,0,0,0,.586.883.483.483,0,0,1,.23.363.856.856,0,0,0,.251.482,4.293,4.293,0,0,1,.578,1.012c.179.418.391.76.471.76s.245.3.366.667.276.666.343.666.268.282.445.625.584,1.075.9,1.625.689,1.188.82,1.417a2.9,2.9,0,0,0,.338.5,2.259,2.259,0,0,1,.3.458l.2.375h5.828c5.729,0,5.827,0,5.827-.335a1.806,1.806,0,0,0-.625-1.215.471.471,0,0,1-.208-.343,1.1,1.1,0,0,0-.292-.534,5.747,5.747,0,0,1-.621-.948c-.181-.343-.384-.625-.45-.625s-.246-.262-.4-.583-.338-.583-.412-.583-.16-.115-.19-.255-.227.087-.458.542a7.492,7.492,0,0,1-1.4,2.212c-.151,0-.322-.2-1.763-2.073L199.8,83.375c-.442-.573-1.163-1.51-1.6-2.083-1.28-1.665-2.471-3.212-3.335-4.334-2.356-3.056-2.843-3.691-4.13-5.375-.771-1.008-1.895-2.471-2.5-3.25s-1.738-2.26-2.52-3.291a15.278,15.278,0,0,0-1.552-1.875,11.132,11.132,0,0,0-1.253,1.708c-.618.94-2.061,3.133-3.205,4.875-3.147,4.791-3.276,4.975-3.455,4.958a5.033,5.033,0,0,1-.63-1.57c-.255-.855-.657-2.192-.894-2.971s-.568-1.9-.736-2.5-.415-1.421-.55-1.834-.436-1.387-.667-2.166-.613-2.04-.847-2.8a12.793,12.793,0,0,1-.426-1.625c0-.424-.236-.253-.766.555m-90.611-.53c-.055.055-1.323.693-2.82,1.418-1.938.94-2.768,1.429-2.886,1.7a7.54,7.54,0,0,1-1.686,1.782,3.315,3.315,0,0,1-1.57.666c-.165,0-.325.069-.355.152a6.9,6.9,0,0,1-1.889.334,6.275,6.275,0,0,0-1.89.351C67,65.762,64.605,67,61.713,68.431l-5.257,2.593-.672-.637c-.37-.35-1.728-1.668-3.02-2.928s-2.366-2.292-2.389-2.292-.042,5.663-.042,12.586V90.339l4.625-.045,4.625-.044.044-8.375L59.67,73.5h4.655a29.424,29.424,0,0,0,4.758-.167,3.471,3.471,0,0,1,1.385-.17,21.43,21.43,0,0,0,5.019-.638,3.172,3.172,0,0,1,1.073-.369,4.056,4.056,0,0,0,1.167-.395,5.223,5.223,0,0,1,.84-.511,6.057,6.057,0,0,0,1.027-.667c1.747-1.55,2.4-2.195,2.4-2.366a.469.469,0,0,1,.212-.334,2.752,2.752,0,0,0,.542-.8,3.9,3.9,0,0,1,.521-.833c.762-.668.634-1.253-.781-3.587-.743-1.224-1.5-2.511-1.674-2.861-.313-.613-.485-.746-.695-.536M173.857,60.5a1.827,1.827,0,0,0,.143.583c.09.21.143.241.143.084a1.833,1.833,0,0,0-.143-.584c-.09-.21-.143-.241-.143-.083M28.571,64.588,27.25,67.044l-2.5,1.26-2.5,1.26.583.166a1.858,1.858,0,0,1,.675.3,5.707,5.707,0,0,0,1.416.4,7.757,7.757,0,0,1,1.493.4,9.278,9.278,0,0,0,1.666.426,8.3,8.3,0,0,1,1.584.4,8.494,8.494,0,0,0,1.583.416,8.776,8.776,0,0,1,1.583.412,3.331,3.331,0,0,0,.814.341,3.518,3.518,0,0,1,.917.409,3.816,3.816,0,0,0,.685.425,3.394,3.394,0,0,1,1.918,2.844c0,.254.093.5.208.545.167.068.167.087,0,.1-.12.007-.208.235-.208.535,0,.724-.352,1.829-.615,1.93a.347.347,0,0,0-.219.289A9.493,9.493,0,0,1,34.129,82a4.028,4.028,0,0,0-.816.324c-1.763.852-8.48,1-8.48.192a2.538,2.538,0,0,0-.908-.422,2.306,2.306,0,0,1-.995-.535.344.344,0,0,0-.278-.226,4.349,4.349,0,0,1-1.485-1.472.446.446,0,0,0-.213-.311,2.722,2.722,0,0,1-.537-.883,3.75,3.75,0,0,0-.45-.841,5.28,5.28,0,0,1-.421-1.25,6.126,6.126,0,0,0-.4-1.243.9.9,0,0,1-.169-.416c-.034-.184-.137-.331-.227-.328A30.944,30.944,0,0,0,14.333,75a8.69,8.69,0,0,1-2.083.25l-2.083.12v.6a15.69,15.69,0,0,0,.675,3.7c.066,0,.172.281.235.625a20.1,20.1,0,0,0,1.662,3.679A14.758,14.758,0,0,0,16.667,88a2.045,2.045,0,0,1,.5.336A3.453,3.453,0,0,0,18.575,89c.142,0,.258.064.258.141a5.1,5.1,0,0,0,1.936.692c.127,0,.231.063.231.14a7.156,7.156,0,0,0,2.8.635,3.051,3.051,0,0,1,1.135.25,47.438,47.438,0,0,0,7.651-.025.963.963,0,0,1,.635-.172,10.629,10.629,0,0,0,3.252-.654.3.3,0,0,1,.275-.174,8.845,8.845,0,0,0,2.088-.67,3.9,3.9,0,0,1,.8-.385,5.034,5.034,0,0,0,.916-.446c.11-.09.536-.43.949-.757a9.5,9.5,0,0,0,2-1.885,1.01,1.01,0,0,1,.322-.429,3.343,3.343,0,0,0,.591-.859c.148-.313.331-.569.406-.569s.264-.356.421-.791.355-.942.44-1.125a8.857,8.857,0,0,0,.652-2.532.947.947,0,0,1,.168-.635,10.133,10.133,0,0,0,.015-3.544,8.732,8.732,0,0,1-.337-1.621,7.785,7.785,0,0,0-.515-1.963,3.374,3.374,0,0,1-.33-.8c0-1.046-4.073-5.07-5.632-5.565-.2-.064-.368-.171-.368-.237a3.57,3.57,0,0,0-1.166-.441A3.744,3.744,0,0,1,37,64.15a3.523,3.523,0,0,0-1.125-.413,5.688,5.688,0,0,1-1.208-.409,7.171,7.171,0,0,0-1.417-.412,8.805,8.805,0,0,1-1.5-.432,3.6,3.6,0,0,0-1.013-.241l-.842-.112-1.32,2.457M112.4,63c-.091.091-2.45.73-5.241,1.42s-5.6,1.4-6.242,1.571-1.58.407-2.084.518a7.6,7.6,0,0,0-1.18.337,62.557,62.557,0,0,0-3,5.632,58.738,58.738,0,0,1-2.934,5.509c-.17.011-.739-.889-2.994-4.737l-.39-.667.041,8.834.041,8.833,16.989.042c13.482.034,17.017,0,17.123-.166a62.051,62.051,0,0,0,.037-7.529c-.091-.237-1.348-.264-12.5-.264h-12.4V70.5H120V62.833h-3.717A21.643,21.643,0,0,0,112.4,63m-10.15.833c-.21.091-.241.144-.083.144a1.832,1.832,0,0,0,.583-.144c.21-.09.241-.143.083-.143a1.854,1.854,0,0,0-.583.143" transform="translate(9930.167 -125.041)" fill="#72706f" fill-rule="evenodd"/>
    <path id="path2" d="M24.087,44.78a2.5,2.5,0,0,0-.917.191,7.021,7.021,0,0,1-1.489.4,6.373,6.373,0,0,0-1.5.416,4.354,4.354,0,0,1-1.056.45,2.562,2.562,0,0,0-.958.445c0,.069-.268.215-.595.323a1.3,1.3,0,0,0-.685.429.358.358,0,0,1-.29.234,1.777,1.777,0,0,0-.69.474,4.931,4.931,0,0,1-.865.673c-.207.109-.375.3-.375.432a.711.711,0,0,1-.3.453,2.951,2.951,0,0,0-.625.8,3.9,3.9,0,0,1-.512.75,2.5,2.5,0,0,0-.4.833,2.1,2.1,0,0,1-.369.771,7.138,7.138,0,0,0-.623,2.688c0,.343-.078.625-.169.625s-.167.412-.167.916.075.917.167.917.166.3.166.662a10.447,10.447,0,0,0,.67,3.171,1.971,1.971,0,0,1,.413.773,4.442,4.442,0,0,0,.565,1.072c.148.166.419.5.6.752a16.733,16.733,0,0,0,2.32,2.32c.248.183.587.455.752.6a4.436,4.436,0,0,0,1.073.564,2.121,2.121,0,0,1,.772.4c0,.551,1.054.451,2.222-.209.675-.381,1.969-1.058,2.877-1.5,1.3-.638,1.7-.921,1.9-1.334.139-.287.624-1.213,1.077-2.057.948-1.767.982-1.633-.511-2a6.037,6.037,0,0,1-1.237-.385,5.277,5.277,0,0,0-1.081-.415,4.456,4.456,0,0,1-1.221-.531.75.75,0,0,0-.42-.222,3.461,3.461,0,0,1-1.445-1.284.542.542,0,0,0-.291-.363c-.365-.2-.439-2.693-.083-2.811a.325.325,0,0,0,.214-.265c.008-.31.53-.85,1.161-1.2a3.449,3.449,0,0,0,.681-.458,7.143,7.143,0,0,1,2.277-.615c.206,0,.375-.077.375-.169a7.533,7.533,0,0,1,2.417-.167,11.485,11.485,0,0,1,2.416.129,4.883,4.883,0,0,0,2.187.406c.058-.065.462-.793.9-1.618,1.072-2.032,1.925-3.583,1.969-3.583.021,0,2.163,2.081,4.762,4.625s4.8,4.653,4.9,4.689a4.759,4.759,0,0,0-.183-2.31,4.612,4.612,0,0,1-.428-1.088,6.569,6.569,0,0,0-.621-1.442,1.84,1.84,0,0,1-.313-.591,1.472,1.472,0,0,0-.292-.53,11.445,11.445,0,0,0-2.478-2.77,3.122,3.122,0,0,0-.857-.583.316.316,0,0,1-.251-.209,1.527,1.527,0,0,0-.72-.441,3.072,3.072,0,0,1-.832-.423,3.21,3.21,0,0,0-.923-.428,3.574,3.574,0,0,1-.814-.334A7.553,7.553,0,0,0,34,45.244a2.311,2.311,0,0,1-1.027-.293,73.023,73.023,0,0,0-8.886-.171m118,0a2.5,2.5,0,0,0-.917.191,7.021,7.021,0,0,1-1.489.4,6.373,6.373,0,0,0-1.5.416,4.354,4.354,0,0,1-1.056.45,2.623,2.623,0,0,0-.958.441,2.118,2.118,0,0,1-.834.423,2.023,2.023,0,0,0-.833.429c0,.071-.229.248-.509.392a26.3,26.3,0,0,0-4.9,4.721c-.062.2-.184.358-.27.358s-.277.3-.424.667-.323.666-.392.666a1.942,1.942,0,0,0-.425.792,3.437,3.437,0,0,1-.427.877,4.034,4.034,0,0,0-.559,1.648,20.6,20.6,0,0,0,2.7-.56c1.442-.352,2.773-.671,2.958-.71.26-.055.635.291,1.649,1.525,1.531,1.86,1.626,1.892,2.007.678a2.548,2.548,0,0,1,.4-.916,1.691,1.691,0,0,0,.442-.611,9.173,9.173,0,0,1,2.23-2.389c.091,0,.263-.136.383-.3a2.708,2.708,0,0,1,.967-.6,2.892,2.892,0,0,0,.84-.443c.475-.768,7.269-.844,8.042-.089a3.083,3.083,0,0,0,.785.427c.694.275.769.334,2.179,1.718a7.5,7.5,0,0,1,1.326,1.64,3.11,3.11,0,0,0,.416.754,3.68,3.68,0,0,1,.394,1.125c.19.851.249.935.655.936a17.63,17.63,0,0,0,3.53-.667,8.495,8.495,0,0,1,1.708-.424,6.38,6.38,0,0,0,1.625-.421,2.073,2.073,0,0,1,.917-.231c.7-.088.916-.18.914-.4a8.026,8.026,0,0,0-.612-2.342,2.611,2.611,0,0,1-.385-.834,3.448,3.448,0,0,0-.412-.917,4.594,4.594,0,0,1-.492-.9c-.172-.389-.379-.708-.459-.708s-.218-.189-.306-.421a.988.988,0,0,0-.412-.518.377.377,0,0,1-.253-.29,7.2,7.2,0,0,0-1.992-2.043c-.279-.165-.508-.357-.508-.426s-.243-.253-.541-.407a3.054,3.054,0,0,1-.709-.478,2.426,2.426,0,0,0-.75-.426,3.087,3.087,0,0,1-.769-.408,3.338,3.338,0,0,0-.917-.417,2.892,2.892,0,0,1-.816-.355,7.6,7.6,0,0,0-1.583-.422,6.436,6.436,0,0,1-1.606-.452,68.069,68.069,0,0,0-8.055-.157M50.333,53.986c0,5.227.062,8.675.156,8.708s1.544,1.423,3.24,3.094l3.083,3.038.636-.3c2.582-1.21,5.709-2.8,5.713-2.9a6.779,6.779,0,0,0-1.828-.125H59.5V53.167h4.917a29.028,29.028,0,0,1,4.916.166c0,.092.184.167.409.167a6.176,6.176,0,0,1,2.309.556,5.572,5.572,0,0,0,1.091.719,3.577,3.577,0,0,1,1.275,1.484,3.4,3.4,0,0,0,.482.766,4.09,4.09,0,0,1,.23,1.375,6.178,6.178,0,0,0,.149,1.267c.037,0,1.348-.641,2.914-1.425a22.634,22.634,0,0,1,3.023-1.365,19.786,19.786,0,0,1,1.606,2.5,16.374,16.374,0,0,0,1.6,2.449c.492.025.12-7.626-.388-7.987a2.819,2.819,0,0,1-.362-.819,3.454,3.454,0,0,0-.411-.917,2.8,2.8,0,0,1-.368-.6,9.455,9.455,0,0,0-2.1-2.484c-1.6-1.561-1.66-1.606-2.517-1.933a1.976,1.976,0,0,1-.772-.412A6.976,6.976,0,0,0,75.016,46c-.268,0-.513-.072-.544-.16-.1-.286-6.872-.506-15.6-.506H50.333v8.653M88.5,45.458c-.059,2.708-.054,23.721.006,23.75a33,33,0,0,1,2.079,3.343l.961,1.634L93.756,69.8l2.212-4.384,4.224-1.043c6.327-1.561,6.215-1.45,1.516-1.5l-4.041-.045v-9.66h24V45.333H105.083c-9.121,0-16.584.057-16.586.125m79.545-.014c-.268.108-.309,14.723-.042,14.723a22.89,22.89,0,0,0,2.024-2.834A30.737,30.737,0,0,1,172,54.5c.13,0,.459,1.017,1.914,5.917.245.825.619,2.062.83,2.75s.628,2.075.925,3.083.7,2.35.906,2.982l.366,1.149,2.632-3.982c1.447-2.19,3.014-4.564,3.483-5.274,1.054-1.6.771-1.691,2.759.917.927,1.214,2.153,2.812,2.725,3.55s1.265,1.636,1.54,2c2.069,2.709,3.624,4.737,3.95,5.149.211.268,1.341,1.731,2.512,3.25s3.046,3.951,4.167,5.4,2.063,2.708,2.094,2.792c.092.254.332.171.435-.152a2.376,2.376,0,0,1,.456-.69c.308-.331.325-.412.116-.571a2.761,2.761,0,0,1-.536-.81c-.161-.343-.359-.625-.44-.625s-.19-.133-.242-.3a13.047,13.047,0,0,0-1.5-2.384.931.931,0,0,1-.259-.39,11.381,11.381,0,0,0-1.291-1.9.773.773,0,0,1-.209-.429,1.1,1.1,0,0,0-.3-.53,5.719,5.719,0,0,1-.625-.906,2.661,2.661,0,0,0-.533-.717.468.468,0,0,1-.208-.343,1.094,1.094,0,0,0-.3-.534,5.653,5.653,0,0,1-.625-.906,2.68,2.68,0,0,0-.534-.717.5.5,0,0,1-.208-.375,1,1,0,0,0-.3-.539,3.978,3.978,0,0,1-.591-.916c-.162-.341-.352-.62-.422-.62s-.253-.262-.406-.583-.339-.583-.414-.583-.274-.338-.444-.75-.373-.75-.452-.75-.272-.3-.43-.667-.345-.667-.412-.667-.249-.243-.4-.541a3.014,3.014,0,0,0-.481-.709c-.505-.418-.394-.735.593-1.7a7.234,7.234,0,0,0,.991-1.084c0-.064,1.505-1.639,3.343-3.5s4.725-4.785,6.416-6.5a41.431,41.431,0,0,0,3.076-3.3c0-.324.818.685,1.03,1.27.112.309.261.562.332.562s.254.244.407.542a3.4,3.4,0,0,0,.379.625,4.317,4.317,0,0,1,.427.667,5.745,5.745,0,0,0,.625.906,1.094,1.094,0,0,1,.3.53.756.756,0,0,0,.217.427,4.8,4.8,0,0,1,.542.8,2.667,2.667,0,0,0,.532.717.5.5,0,0,1,.209.375.99.99,0,0,0,.3.539,4.054,4.054,0,0,1,.591.917c.162.34.354.619.428.619s.273.337.443.75.372.75.45.75.251.262.385.583.3.585.366.586.266.3.441.666a1.846,1.846,0,0,0,.427.665,1.8,1.8,0,0,1,.4.675c.4.9.49.837,1.639-1.183.545-.958,1.184-2.079,1.42-2.492s.694-1.22,1.018-1.795c.762-1.352.772-1.344,1.715,1.388.441,1.278,1.334,3.861,1.985,5.74s1.555,4.5,2.011,5.834a25.3,25.3,0,0,0,.962,2.549,12.215,12.215,0,0,0,1.774-2.417c.9-1.4,2.324-3.6,3.157-4.882s1.888-2.915,2.343-3.626,1.8-2.791,2.993-4.623,2.718-4.194,3.393-5.249c1.569-2.455,1.555-2.463,1.522.789-.015,1.49-.021,2.77-.013,2.846.026.252.524-.369.773-.965.135-.324.311-.589.39-.589s.238-.227.353-.5a1.713,1.713,0,0,1,.4-.625,2.7,2.7,0,0,0,.5-.829c.172-.39.373-.709.446-.709s.266-.281.428-.625a4.608,4.608,0,0,1,.591-.948,1.094,1.094,0,0,0,.3-.533.47.47,0,0,1,.21-.344,2.752,2.752,0,0,0,.542-.8,2.766,2.766,0,0,1,.54-.8.717.717,0,0,0,.208-.541v-.409H236.051l-.317.707a4.267,4.267,0,0,1-.609,1,.984.984,0,0,0-.292.535.493.493,0,0,1-.218.375,1.813,1.813,0,0,0-.442.717,2.44,2.44,0,0,1-.422.75,3.392,3.392,0,0,0-.509.833,4.359,4.359,0,0,1-.527.887.758.758,0,0,0-.215.427,1.1,1.1,0,0,1-.294.53,4.83,4.83,0,0,0-.608,1.031,2.118,2.118,0,0,1-.415.71,2.184,2.184,0,0,0-.432.709,4.052,4.052,0,0,1-.516.873,2.632,2.632,0,0,0-.408.75,1.835,1.835,0,0,1-.43.709,1.657,1.657,0,0,0-.4.709c-.106.32-.254.582-.328.582s-.256.3-.4.666-.327.667-.4.667-.277.319-.448.708a4.145,4.145,0,0,1-.533.929.754.754,0,0,0-.219.427,1.126,1.126,0,0,1-.308.537,2.246,2.246,0,0,0-.4.573c-.062.169-.144.1-.271-.216-.1-.252-.248-.458-.327-.458s-.244-.3-.367-.675a1.951,1.951,0,0,0-.419-.791,2.5,2.5,0,0,1-.507-.784,4.806,4.806,0,0,0-.607-.99,1.088,1.088,0,0,1-.3-.53.861.861,0,0,0-.256-.462,3.266,3.266,0,0,1-.5-.845c-.135-.325-.308-.59-.385-.59s-.279-.337-.449-.75a1.93,1.93,0,0,0-.429-.75c-.067,0-.253-.3-.415-.666s-.349-.667-.415-.667a1.838,1.838,0,0,1-.407-.75c-.158-.413-.35-.75-.428-.75s-.253-.265-.388-.589a3.249,3.249,0,0,0-.5-.845.859.859,0,0,1-.256-.463,1.109,1.109,0,0,0-.3-.534,4.6,4.6,0,0,1-.616-1.031c-.171-.388-.37-.7-.443-.7s-.249-.278-.391-.619a2.5,2.5,0,0,0-.393-.708,2.1,2.1,0,0,1-.371-.589l-.236-.5-10.144-.043-10.143-.043-.646.626a3.286,3.286,0,0,0-.646.75,9.287,9.287,0,0,1-1.167,1.27,9.722,9.722,0,0,0-1.166,1.265,10.213,10.213,0,0,1-1.161,1.314c-2.452,2.524-3.839,4.011-3.839,4.115a52.781,52.781,0,0,1-3.674,3.94,10.263,10.263,0,0,0-1.16,1.313,9.58,9.58,0,0,1-1.166,1.265,9.521,9.521,0,0,0-1.169,1.27,8.306,8.306,0,0,1-1.083,1.189l-1.082,1.064V45.333l-4.541.013c-2.5.008-4.636.051-4.75.1M154.934,73.93a1.978,1.978,0,0,0-.1.584c0,.175-.075.319-.166.319s-.167.1-.167.231A5.1,5.1,0,0,1,153.808,77c-.078,0-.141.12-.141.266a3.9,3.9,0,0,1-.671,1.4c-.824.788-.795,1.288.136,2.327l.8.892,1.259-1.9c3.731-5.634,3.576-5.3,2.561-5.539a2,2,0,0,1-.754-.293,5.583,5.583,0,0,0-1.77-.481.379.379,0,0,0-.292.259" transform="translate(9930.167 -125.041)" fill="#1f1a17" fill-rule="evenodd"/>
    <path id="path3" d="M318.542,40.612c-.39.041-.709.145-.709.231s-.206.157-.458.157a11.449,11.449,0,0,0-3.208.689c0,.08-.125.144-.277.144a9.023,9.023,0,0,0-2.223.676,4.895,4.895,0,0,1-.959.413,2.382,2.382,0,0,0-.875.428,2.217,2.217,0,0,1-.833.416,2.212,2.212,0,0,0-.833.417,1.947,1.947,0,0,1-.75.425,1.94,1.94,0,0,0-.75.429c0,.067-.229.24-.509.384a4.94,4.94,0,0,0-.792.51,8.634,8.634,0,0,1-1.545,1.236A50.92,50.92,0,0,0,300,50.978a4.157,4.157,0,0,1-.585.772,4.373,4.373,0,0,0-.675.958c-.051.161-.159.292-.24.292s-.28.281-.442.625a4.665,4.665,0,0,1-.591.948,1.092,1.092,0,0,0-.3.53.758.758,0,0,1-.215.427,4.751,4.751,0,0,0-.785,1.62.169.169,0,0,1-.149.183,2.359,2.359,0,0,0-.448,1,2.84,2.84,0,0,1-.417,1,3.82,3.82,0,0,0-.41,1.209,5.641,5.641,0,0,1-.413,1.291,19.693,19.693,0,0,0-.663,3.813c0,.286-.075.521-.167.521a15.04,15.04,0,0,0-.167,3.5,15.047,15.047,0,0,0,.167,3.5c.092,0,.168.243.17.541a15.865,15.865,0,0,0,.632,3.614,3.724,3.724,0,0,1,.362,1.15,3.845,3.845,0,0,0,.445,1.28.743.743,0,0,1,.224.384A6,6,0,0,0,296,82a2.037,2.037,0,0,1,.417.792,3.773,3.773,0,0,0,.415.875,3.45,3.45,0,0,1,.427.744,4.182,4.182,0,0,0,.607.958,1,1,0,0,1,.3.542.6.6,0,0,0,.333.422.6.6,0,0,1,.333.413.707.707,0,0,0,.307.453,1.191,1.191,0,0,1,.375.4,25.749,25.749,0,0,0,4.141,4.4c.087,0,.256.133.376.295a3.243,3.243,0,0,0,.714.611,7.212,7.212,0,0,1,.823.622,1.106,1.106,0,0,0,.537.305.471.471,0,0,1,.344.21,2.712,2.712,0,0,0,.8.542,2.906,2.906,0,0,1,.784.511,2.128,2.128,0,0,0,.791.4c.371.123.675.28.675.35a2.19,2.19,0,0,0,.875.414,4.31,4.31,0,0,1,.958.4,8.585,8.585,0,0,0,2.089.675.3.3,0,0,1,.274.173,4.262,4.262,0,0,0,1.473.447,7.19,7.19,0,0,1,1.5.388c.435.595,11.259.594,11.666,0a7.686,7.686,0,0,1,1.625-.418,4.716,4.716,0,0,0,1.542-.443c0-.08.09-.146.2-.146a7.357,7.357,0,0,0,2.133-.691,2.4,2.4,0,0,1,.917-.385,2.355,2.355,0,0,0,.918-.387,2.02,2.02,0,0,1,.75-.449,2.216,2.216,0,0,0,.749-.433,2.115,2.115,0,0,1,.75-.414,1.848,1.848,0,0,0,.75-.437c0-.071.229-.247.509-.392a4.931,4.931,0,0,0,.791-.508l.95-.824a4.017,4.017,0,0,1,.771-.579,26.773,26.773,0,0,0,3.073-3.129,3,3,0,0,1,.6-.673.709.709,0,0,0,.3-.452.6.6,0,0,1,.333-.413c.183-.1.333-.274.333-.391a1.09,1.09,0,0,1,.3-.536,5.719,5.719,0,0,0,.625-.9,5.545,5.545,0,0,1,.524-.793,3.023,3.023,0,0,0,.408-.795c.116-.32.26-.581.321-.581a2.178,2.178,0,0,0,.413-.792,4.089,4.089,0,0,1,.492-.981,3.576,3.576,0,0,0,.4-1.125,2.181,2.181,0,0,1,.336-.936,4.422,4.422,0,0,0,.437-1.375,6.422,6.422,0,0,1,.437-1.463c.779-.543.776-13.125,0-13.656a6.475,6.475,0,0,1-.431-1.5,5.826,5.826,0,0,0-.514-1.622,2.113,2.113,0,0,1-.327-.887,2.115,2.115,0,0,0-.319-.878,4.041,4.041,0,0,1-.507-1,2.068,2.068,0,0,0-.42-.791c-.065,0-.218-.3-.34-.675a1.97,1.97,0,0,0-.419-.792,2.46,2.46,0,0,1-.505-.783,2.8,2.8,0,0,0-.607-.885.7.7,0,0,1-.3-.4c0-.186-.186-.417-1.041-1.294a1.993,1.993,0,0,1-.459-.6,35.315,35.315,0,0,0-4.759-4.474,7.262,7.262,0,0,1-.807-.619,2.088,2.088,0,0,0-.63-.4c-.167-.053-.3-.161-.3-.239s-.262-.229-.582-.335a1.617,1.617,0,0,1-.708-.4,2.583,2.583,0,0,0-.918-.51,2.071,2.071,0,0,1-.792-.415,2.724,2.724,0,0,0-.958-.435,4.889,4.889,0,0,1-1.042-.429,5.928,5.928,0,0,0-1.25-.415,5.455,5.455,0,0,1-1.256-.426A11.913,11.913,0,0,0,327.836,41c-.261,0-.505-.09-.541-.2a62.752,62.752,0,0,0-8.753-.188m-59.834,4.832c-.165.066-.208,4.7-.208,22.4v22.32H268v-19h18.5V63.5H268V53h21.5V45.333l-15.292.013c-8.41.008-15.385.051-15.5.1m92.959.049a7.413,7.413,0,0,0,1,1.625.714.714,0,0,1,.169.311,5.256,5.256,0,0,0,.584.9,3.879,3.879,0,0,1,.583.973.448.448,0,0,0,.21.311,2.751,2.751,0,0,1,.542.8,2.766,2.766,0,0,0,.54.8.471.471,0,0,1,.208.343,1.094,1.094,0,0,0,.3.534,5.718,5.718,0,0,1,.625.906,2.7,2.7,0,0,0,.533.717.47.47,0,0,1,.209.343,1.09,1.09,0,0,0,.3.534,3.758,3.758,0,0,1,.54.864c.132.3.3.542.369.542s.254.262.407.583.335.584.406.584.26.281.422.625a4.608,4.608,0,0,0,.591.948,1.094,1.094,0,0,1,.3.533.473.473,0,0,0,.208.344,2.654,2.654,0,0,1,.534.716,5.714,5.714,0,0,0,.625.907,1.1,1.1,0,0,1,.3.516,1.327,1.327,0,0,0,.328.571,4.117,4.117,0,0,1,.54.859c.117.264.266.481.331.481s.243.262.395.583.334.583.4.583.225.244.344.542a2.908,2.908,0,0,0,.52.84q.539.527.087.981a4.861,4.861,0,0,0-.542.8,2.684,2.684,0,0,1-.532.717.47.47,0,0,0-.209.343,1.094,1.094,0,0,1-.3.534,5.722,5.722,0,0,0-.625.906,2.66,2.66,0,0,1-.533.717.468.468,0,0,0-.208.343,1.1,1.1,0,0,1-.3.534,4.594,4.594,0,0,0-.592.948c-.161.343-.356.625-.432.625s-.233.226-.348.5a1.66,1.66,0,0,1-.4.625,2.364,2.364,0,0,0-.486.746c-.16.343-.348.625-.418.625s-.253.262-.406.583-.341.583-.417.583-.241.263-.367.584-.294.583-.373.583-.254.262-.388.583-.3.584-.367.584-.22.216-.336.48a4.752,4.752,0,0,1-.624.958,1.768,1.768,0,0,0-.412.678.466.466,0,0,1-.208.334,2.654,2.654,0,0,0-.534.716,5.714,5.714,0,0,1-.625.907,1.1,1.1,0,0,0-.3.512,2.83,2.83,0,0,1-.495.843,2.949,2.949,0,0,0-.5.846.385.385,0,0,1-.255.286.374.374,0,0,0-.25.287,3.746,3.746,0,0,1-.583.986,3.783,3.783,0,0,0-.583.981.174.174,0,0,1-.155.186c-.178,0-.679.941-.679,1.275,0,.184,1,.225,5.5.225,4.694,0,5.5-.036,5.5-.242a.5.5,0,0,1,.21-.375,2.712,2.712,0,0,0,.542-.8,2.737,2.737,0,0,1,.54-.8.468.468,0,0,0,.208-.344,1.1,1.1,0,0,1,.3-.533,5.746,5.746,0,0,0,.625-.906,4.318,4.318,0,0,1,.427-.667,3.406,3.406,0,0,0,.379-.625c.153-.3.333-.542.4-.542s.253-.3.412-.666.353-.667.431-.667.281-.338.451-.75.37-.75.445-.75.26-.263.413-.583.338-.584.412-.584.242-.26.375-.579a3.824,3.824,0,0,1,.586-.948,1.254,1.254,0,0,0,.343-.579.473.473,0,0,1,.21-.344,2.712,2.712,0,0,0,.542-.8,2.767,2.767,0,0,1,.54-.8.464.464,0,0,0,.209-.333,1.72,1.72,0,0,1,.4-.668l.4-.467.215.592c.118.326.275.593.35.593s.261.262.414.583.336.584.406.584.26.278.422.619a4.076,4.076,0,0,0,.591.917.986.986,0,0,1,.3.539.5.5,0,0,0,.209.375,2.658,2.658,0,0,1,.532.716,4.818,4.818,0,0,0,.542.8.756.756,0,0,1,.217.427,1.1,1.1,0,0,0,.3.53,5.654,5.654,0,0,1,.625.906,2.681,2.681,0,0,0,.534.717.5.5,0,0,1,.208.375,1,1,0,0,0,.3.539,3.978,3.978,0,0,1,.591.916c.162.341.354.62.428.62s.274.318.446.708a2.668,2.668,0,0,0,.5.829,1.714,1.714,0,0,1,.4.625c.115.278.275.5.356.5s.277.3.435.667l.289.667h5.544c5.433,0,5.544-.007,5.544-.334,0-.183-.071-.333-.159-.333s-.289-.281-.449-.625a2.36,2.36,0,0,0-.486-.746,1.685,1.685,0,0,1-.4-.625c-.115-.277-.271-.5-.347-.5s-.27-.281-.43-.625a2.362,2.362,0,0,0-.485-.746,1.672,1.672,0,0,1-.4-.625c-.115-.277-.271-.5-.347-.5s-.269-.281-.429-.625a2.377,2.377,0,0,0-.486-.746,1.66,1.66,0,0,1-.4-.625c-.115-.277-.275-.5-.356-.5s-.277-.3-.436-.667-.344-.666-.412-.666-.247-.244-.4-.542a2.052,2.052,0,0,0-.5-.675.438.438,0,0,1-.227-.3,10.927,10.927,0,0,0-1.415-2.168.951.951,0,0,1-.252-.379,14.146,14.146,0,0,0-1.388-2.107,3.563,3.563,0,0,1-.46-.792c-.128-.3-.291-.541-.362-.541s-.254-.263-.407-.584-.336-.583-.406-.583-.26-.279-.422-.619a4.053,4.053,0,0,0-.591-.917.991.991,0,0,1-.3-.541.55.55,0,0,0-.3-.4,1.713,1.713,0,0,1-.531-.756c-.129-.329-.294-.6-.366-.6-.7,0-.6-2.08.125-2.538A1.687,1.687,0,0,0,378,65c.115-.277.271-.5.348-.5s.271-.281.432-.625a4.622,4.622,0,0,1,.592-.948,1.1,1.1,0,0,0,.3-.533.468.468,0,0,1,.208-.344,2.646,2.646,0,0,0,.532-.717,4.861,4.861,0,0,1,.542-.8.752.752,0,0,0,.218-.427,1.094,1.094,0,0,1,.3-.53,5.843,5.843,0,0,0,.625-.9c.178-.318.381-.656.45-.75a19.468,19.468,0,0,0,1.339-2.13c.06-.161.175-.292.255-.292s.286-.337.456-.75.371-.75.445-.75.26-.263.413-.583.34-.584.416-.584.257-.3.4-.666.326-.667.4-.667.254-.263.406-.583.332-.584.4-.584a1.961,1.961,0,0,0,.451-.748,2.052,2.052,0,0,1,.446-.75c.065,0,.242-.264.394-.585s.335-.583.407-.583.249-.3.4-.667.33-.667.408-.667c.123,0,.528-.711.528-.926,0-.043-2.417-.058-5.37-.034l-5.37.044-.2.4a1.818,1.818,0,0,1-.339.5,3.585,3.585,0,0,0-.473.769,5.046,5.046,0,0,1-.531.877,2.975,2.975,0,0,0-.409.792c-.116.32-.268.581-.339.581s-.254.244-.407.542a3.319,3.319,0,0,1-.381.625,4.48,4.48,0,0,0-.435.75,2.736,2.736,0,0,1-.54.8.5.5,0,0,0-.208.375,1.031,1.031,0,0,1-.312.553,4.1,4.1,0,0,0-.615,1c-.167.379-.365.689-.44.689s-.256.3-.4.666-.32.667-.384.667-.249.3-.41.667-.356.666-.431.666-.257.3-.4.667-.336.667-.421.667-.23.206-.324.458c-.166.45-.171.451-.283.083-.063-.206-.171-.375-.241-.375s-.221-.226-.336-.5a1.687,1.687,0,0,0-.4-.625,2.688,2.688,0,0,1-.5-.829c-.172-.39-.376-.708-.454-.708a.169.169,0,0,1-.141-.186,3.65,3.65,0,0,0-.562-.959,5.706,5.706,0,0,1-.678-1.147c-.064-.206-.169-.375-.233-.375s-.265-.281-.446-.625a4.174,4.174,0,0,0-.431-.708,3.337,3.337,0,0,1-.379-.621,14.873,14.873,0,0,0-1.306-2.037,12.636,12.636,0,0,1-1.137-1.967,2.117,2.117,0,0,0-.475-.709,1.746,1.746,0,0,1-.439-.625,3.178,3.178,0,0,0-.5-.747,102.572,102.572,0,0,0-10.751.032m-11.719,6.6c.965.632,1,.995.786,8.265l-.111,3.77.446.975c1.56,3.408,3.011,7.88,3.155,9.723.1,1.236-.048,1.113-.576-.489a55.153,55.153,0,0,0-3.887-7.755l-.957-1.5.1-2.5c.054-1.375.146-3.9.2-5.606l.106-3.106-.44-.288c-1.234-.809-10.294,3.628-15.907,7.792l-.719.533-.568-.329c-.312-.181-1.526-.971-2.7-1.756-5.88-3.939-12.481-6.961-13.336-6.106-.491.492-.345,7.766.212,10.548a2.856,2.856,0,0,1-.53,1.334,49.178,49.178,0,0,0-2.586,4.778c-.724,1.445-1.546,3.264-1.827,4.042-.632,1.745-.724,1.764-.6.123a29.236,29.236,0,0,1,2.393-7.527l.9-2.069-.025-5.6c-.029-6.241.015-6.543,1.045-7.184,1.81-1.128,9.061,1.82,15.385,6.254a7.8,7.8,0,0,0,2.218,1.249,25.872,25.872,0,0,0,2.383-1.474c7.409-4.893,13.563-7.328,15.43-6.1M314.583,75.716c3.045.691,4.084,1.213,4.084,2.051,0,1.412-.975,1.118-5.542-1.672-1.849-1.13-1.849-1.13,1.458-.379M332,75.292a30.988,30.988,0,0,1-5.694,3.372.925.925,0,0,1-.8-.9c0-.811,1.071-1.378,3.667-1.94.87-.189,1.808-.407,2.083-.485.674-.191.75-.2.748-.05m-27.647,3.557c2.786,1.257,6.393,3.088,10.192,5.173,6.849,3.76,7.4,4.023,8.013,3.82.3-.1,2.642-1.316,5.2-2.705,8.752-4.745,14.566-7.554,14.377-6.946-.173.554-11.669,7.809-12.374,7.809-.032,0-1.021.532-2.2,1.183-5.226,2.892-5.243,2.9-7.719,1.6C310.491,83.895,300.9,78,302.3,78a20.458,20.458,0,0,1,2.046.849M322.9,83.873c.283.453-.552,1.235-1.04.974-.52-.279-.763-.81-.509-1.116a1.268,1.268,0,0,1,1.549.142" transform="translate(9930.167 -125.041)" fill="#e97820" fill-rule="evenodd"/>
  </g>
</svg>
